<?xml version="1.0" encoding="utf-8" ?>
<svg baseProfile="full" height="200mm" version="1.1" viewBox="0,0,200,200" width="200mm" xmlns="http://www.w3.org/2000/svg" xmlns:ev="http://www.w3.org/2001/xml-events" xmlns:xlink="http://www.w3.org/1999/xlink"><defs /><rect fill="#1a1a1a" height="200" width="200" x="0" y="0" /><text alignment-baseline="middle" fill="#e1ed5e" style="dominant-baseline: central; font-size:9.0px; font-family:Arial;" text-anchor="middle" x="100.0" y="100.0">2020</text><line stroke="#e1ed5e" stroke-width="0.3" x1="100.0" x2="100.0" y1="15.0" y2="10.0" /><path d="M 100.0 14.0 a86.0,86.0 0 0,1 42.35913384403234,11.155469271406648" fill="none" id="id97" stroke="none" /><text fill="#e1ed5e" style="font-size:6.75px; font-family:Arial;" text-anchor="middle"><textPath startOffset="22.145653131862478" xlink:href="#id97">January</textPath></text><path d="M 100.0 79.0 l 0.0 -32.02560540981044 a53.02560540981044,53.02560540981044 0 0,0 0.910255027907801,0.007813444649473117 l -0.5497621030589462 32.0208863633554" fill="#7eff26" stroke="none" /><path d="M 100.72087961077811 79.0123766808444 l 0.1811860463630476 -5.275034048542631 a26.27814480633875,26.27814480633875 0 0,0 0.4507005151640069,0.019355019366102434 l -0.27171232212789076 5.271146460750698" fill="#ff2b04" stroke="none" /><path d="M 101.44090949804482 79.04949213459386 l 4.322728494134444 -62.8515235962184 a84.0,84.0 0 0,0 1.437724020899066,0.1112889320197854 l -5.401021509808744 62.76805689720356" fill="#4dd2ff" stroke="none" /><path d="M 103.94208987418118 79.37332000966035 l 3.8178766121031273 -19.976743715618817 a41.33830060021633,41.33830060021633 0 0,0 0.6958683116359154,0.13919315125587564 l -4.16024140927 19.908261167700083" fill="#fff717" stroke="none" /><path d="M 105.69591212413111 79.78721728523813 l 3.811457343361025 -13.525517499041841 a35.0522891621667,35.0522891621667 0 0,0 0.5777618541232763,0.1681780553438036 l -4.043079209865906 13.458095749395522" fill="#ffa60f" stroke="none" /><path d="M 106.38641147887787 79.99465700312896 l 5.6973187957305385 -17.84676998155714 a39.73410366777107,39.73410366777107 0 0,0 0.648001287912335,0.21301089427782016 l -6.002842821290615 17.7463381658773" fill="#ffe315" stroke="none" /><path d="M 110.34350942703115 81.72400993836675 l 7.5661585388617105 -13.368677162859976 a36.361259197082894,36.361259197082894 0 0,0 0.5405837618766514,0.31210618043902527 l -7.7945347685987585 13.236824085144779" fill="#ffb711" stroke="none" /><line stroke="#e1ed5e" stroke-width="0.3" x1="143.13028292997686" x2="145.6673583964461" y1="26.7553504044142" y2="22.446841604673864" /><path d="M 143.63769802327073 25.89364864446614 a86.0,86.0 0 0,1 29.32050498858742,28.57503671076993" fill="none" id="id98" stroke="none" /><text fill="#e1ed5e" style="font-size:6.75px; font-family:Arial;" text-anchor="middle"><textPath startOffset="20.669276256404974" xlink:href="#id98">February</textPath></text><path d="M 116.35404254752997 86.82634096563983 l 16.525710154591856 -13.31194230689693 a42.220436001546545,42.220436001546545 0 0,0 0.4498156593569343,0.568327391279234 l -16.75179224459035 13.026294971703017" fill="#fcff18" stroke="none" /><line stroke="#e1ed5e" stroke-width="0.3" x1="172.87174338648825" x2="177.1583165268699" y1="56.24261187166439" y2="53.66864786411523" /><path d="M 173.72905801456457 55.72781907015455 a86.0,86.0 0 0,1 12.242430191666344,42.057860355516425" fill="none" id="id99" stroke="none" /><text fill="#e1ed5e" style="font-size:6.75px; font-family:Arial;" text-anchor="middle"><textPath startOffset="22.145653131862474" xlink:href="#id99">March</textPath></text><path d="M 118.00360718960297 89.18935116829356 l 21.786282824219086 -13.082036865194686 a46.41223736389963,46.41223736389963 0 0,0 0.40428658978832044,0.6865670149513127 l -22.00764312413717 12.706118681949818" fill="#c9ff1d" stroke="none" /><path d="M 118.70294669586156 90.45014215332178 l 13.930022662633855 -7.112768826881981 a36.64087631068531,36.64087631068531 0 0,0 0.28122760113115564,0.5626435891638237 l -14.050070176976746 6.872593381554407" fill="#ffbb11" stroke="none" /><path d="M 119.0197475246899 91.09779779509293 l 24.80424419311039 -11.609638722087137 a48.3867530249359,48.3867530249359 0 0,0 0.34565545947439136,0.755319559830045 l -24.999884117439834 11.182130180042408" fill="#b2ff20" stroke="none" /><path d="M 119.16976305983485 91.42560881287824 l 13.239057573595721 -5.9216620586553415 a35.50305922810427,35.50305922810427 0 0,0 0.24406851606109484,0.5584765286684474 l -13.338759971673786 5.693523460211044" fill="#ffac0f" stroke="none" /><path d="M 119.58574465831526 92.42381321644754 l 15.47915547046587 -5.987669866108873 a37.59688056546656,37.59688056546656 0 0,0 0.2276747424866919,0.6039343038325563 l -15.579660896767002 5.721067282082159" fill="#ffc712" stroke="none" /><path d="M 119.94978838288452 93.4421083053983 l 16.7041587798663 -5.490988777694203 a38.5835115463251,38.5835115463251 0 0,0 0.2014340121282301,0.630989173996855 l -16.79595750777179 5.203430570005961" fill="#ffd413" stroke="none" /><path d="M 120.05942366710727 93.78553927170692 l 22.569100868839293 -6.991965140667116 a44.627354709237906,44.627354709237906 0 0,0 0.2204244504259813,0.7337213063008711 l -22.6858016392689 6.603506230775522" fill="#dfff1b" stroke="none" /><path d="M 120.26092885502905 94.47779374421319 l 13.932873126706822 -3.7974665274186927 a35.44111164667646,35.44111164667646 0 0,0 0.15494604100661366,0.5883553555586515 l -13.996008648518165 3.5577306674872426" fill="#ffab0f" stroke="none" /><path d="M 120.43855184770803 95.1765574152323 l 13.791343101055121 -3.2547194199686555 a35.17019206058061,35.17019206058061 0 0,0 0.13362853920786325,0.5887919998700187 l -13.84518250182065 3.0174930861596105" fill="#ffa70f" stroke="none" /><path d="M 120.592083275326 95.88100663000786 l 29.40193932251345 -5.8812113138381195 a50.98437397116672,50.98437397116672 0 0,0 0.1643000772524735,0.8596874307891609 l -29.49856569204808 5.375621318015644" fill="#95ff23" stroke="none" /><path d="M 120.7213421655516 96.59031103205396 l 14.743453186978448 -2.4260296113753754 a35.941721170999514,35.941721170999514 0 0,0 0.0949520505023608,0.6096602782302355 l -14.782926729619074 2.172581151213699" fill="#ffb210" stroke="none" /><path d="M 120.86939407059847 97.66154086499901 l 17.368524003592096 -1.9461793418767463 a38.47722060552257,38.47722060552257 0 0,0 0.06791707199056485,0.6570360621077334 l -17.39937346806433 1.6477387574860816" fill="#ffd313" stroke="none" /><path d="M 120.93736805541906 98.37931529534042 l 23.67573067066257 -1.8326512896949916 a44.74655414032472,44.74655414032472 0 0,0 0.05270726194974025,0.7663520210953281 l -23.703701893777378 1.4259558444453293" fill="#ddff1b" stroke="none" /><path d="M 120.98066250479742 99.09900007780936 l 14.504818191068994 -0.622899303516 a35.51818701829835,35.51818701829835 0 0,0 0.02093088960266321,0.6093800131777569 l -14.513373767668504 0.3738130257741231" fill="#ffac0f" stroke="none" /><path d="M 120.99303781780057 99.45929381324524 l 10.881824388512307 -0.2802771957595562 a31.885433263259856,31.885433263259856 0 0,0 0.009396437369326337,0.5472953693049777 l -10.8850322574803 0.09343491048551213" fill="#ff7b0b" stroke="none" /><line stroke="#e1ed5e" stroke-width="0.3" x1="184.99686870605535" x2="189.99668451229388" y1="99.2704041080226" y2="99.22748670261217" /><path d="M 185.99683186730306 99.26182062694052 a86.0,86.0 0 0,1 -10.086455211305974,41.156179273409016" fill="none" id="id100" stroke="none" /><text fill="#e1ed5e" style="font-size:6.75px; font-family:Arial;" text-anchor="middle"><textPath startOffset="21.40746469413373" xlink:href="#id100">April</textPath></text><path d="M 120.99922638620191 100.18025310272382 l 14.246020018463705 0.1222849481484286 a35.24654484340018,35.24654484340018 0 0,0 -0.010386935889237382,0.6049869423922872 l -14.241821650975798 -0.3668188065097869" fill="#ffa80f" stroke="none" /><path d="M 120.96210409425399 101.26102812881392 l 28.404064745257656 1.7087180015597674 a49.45541444543803,49.45541444543803 0 0,0 -0.058253859634290805,0.8469983341178124 l -28.3705469244583 -2.196059759831923" fill="#a6ff21" stroke="none" /><path d="M 120.9064616781168 101.97986365728391 l 14.370558641880132 1.3609068443995345 a35.43485445437013,35.43485445437013 0 0,0 -0.0625469179706609,0.605084693376174 l -14.345079331427806 -1.6073960600586399" fill="#ffab0f" stroke="none" /><path d="M 120.82617615685814 102.69636545807757 l 14.130297890854418 1.829449960390334 a35.2482351763949,35.2482351763949 0 0,0 -0.0828425565574579,0.5994074712763646 l -14.09681081774175 -2.071745739866784" fill="#ffa80f" stroke="none" /><path d="M 120.65975698304385 103.76489593502545 l 29.3751700383658 5.353134519389233 a50.85894612952005,50.85894612952005 0 0,0 -0.16389587881935944,0.8575724937891374 l -29.27894786726428 -5.8566095782116845" fill="#96ff23" stroke="none" /><path d="M 120.51834098615036 104.47187691870673 l 14.025844569446024 3.0568675429368404 a35.35509509064009,35.35509509064009 0 0,0 -0.13433107508709682,0.5918875025804893 l -13.971302632801263 -3.2971893794563467" fill="#ffaa0f" stroke="none" /><path d="M 120.16314734710363 105.8691983318838 l 28.222456483065475 8.215145763732416 a50.39380325609286,50.39380325609286 0 0,0 -0.24890622489214387,0.8285278703036296 l -28.0772739381697 -8.698411237626768" fill="#9cff22" stroke="none" /><path d="M 119.83427380445688 106.89939002012753 l 13.862502975004286 4.822098132891622 a35.67724835026101,35.67724835026101 0 0,0 -0.2061802282422706,0.5767227936871453 l -13.777682576718073 -5.0593558829596885" fill="#ffae10" stroke="none" /><path d="M 119.58574465831526 107.57618678355244 l 14.536694494515556 5.623105714243587 a36.58636598763284,36.58636598763284 0 0,0 -0.23161142726524891,0.5838120964908581 l -14.438024392284182 -5.871818827948009" fill="#ffba11" stroke="none" /><path d="M 119.31412917781788 108.2440532568976 l 14.762433760348628 6.301205143719935 a37.05100111494369,37.05100111494369 0 0,0 -0.2547099618261665,0.5828262390973032 l -14.652089916505497 -6.553693452593083" fill="#ffc011" stroke="none" /><path d="M 119.16976305983485 108.57439118712176 l 10.192769318022023 4.559096069159557 a32.16592599555618,32.16592599555618 0 0,0 -0.22978040960266777,0.5021116637433461 l -10.113004443564298 -4.733396715117592" fill="#ff7f0b" stroke="none" /><path d="M 119.0197475246899 108.90220220490707 l 10.96641092812249 5.132834040910369 a33.108185410538304,33.108185410538304 0 0,0 -0.24534858958041844,0.5126841892770283 l -10.87668308058216 -5.320330732252501" fill="#ff8b0c" stroke="none" /><path d="M 118.70294669586154 109.54985784667822 l 18.90371396925826 9.652371046998045 a42.225425052527356,42.225425052527356 0 0,0 -0.33517322096949237,0.6427388454547435 l -18.735232679313818 -9.975456135557291" fill="#fcff18" stroke="none" /><line stroke="#e1ed5e" stroke-width="0.3" x1="174.33088141563837" x2="178.70328620479359" y1="141.23008692659167" y2="143.65538615756765" /><path d="M 175.20536237346943 141.71514677278685 a86.0,86.0 0 0,1 -30.301960400862466,31.631185727798858" fill="none" id="id101" stroke="none" /><text fill="#e1ed5e" style="font-size:6.75px; font-family:Arial;" text-anchor="middle"><textPath startOffset="22.145653131862474" xlink:href="#id101">May</textPath></text><path d="M 118.36410011445183 110.18625677009912 l 14.129567941189148 7.837433155041892 a37.15766222769959,37.15766222769959 0 0,0 -0.3141886212116596,0.555141188708776 l -13.99294595495611 -8.078831113849791" fill="#ffc212" stroke="none" /><path d="M 118.18653347947321 110.5 l 16.069195917771623 9.277554588786277 a39.55510917757256,39.55510917757256 0 0,0 -0.34455568415549603,0.5851308787635245 l -15.907566523486361 -9.55203663584335" fill="#ffe015" stroke="none" /><path d="M 117.81537515405839 111.11811171558189 l 27.01711905685232 16.860680468961856 a52.84662098258722,52.84662098258722 0 0,0 -0.48689934368965027,0.7654866401115332 l -26.723702021536777 -17.32198078375206" fill="#80ff25" stroke="none" /><path d="M 116.57777611688842 112.89097897827486 l 17.03956991623521 13.250072629781746 a42.5849801395498,42.5849801395498 0 0,0 -0.45369950512760404,0.5732345035352405 l -16.809603980466044 -13.540627077231669" fill="#f8ff18" stroke="none" /><path d="M 116.35404254752997 113.17365903436017 l 12.225871633131787 9.848296763607223 a36.69907278580149,36.69907278580149 0 0,0 -0.3994138007708596,0.48721989316487574 l -12.055011013122298 -10.056718938470592" fill="#ffbc11" stroke="none" /><path d="M 115.6541949942343 113.99807769240083 l 18.520451093156847 16.561101570269546 a45.84506377361103,45.84506377361103 0 0,0 -0.52962466078708,0.5821502787897271 l -18.233428731527887 -16.876589424616945" fill="#d0ff1d" stroke="none" /><path d="M 114.91283532996324 114.78537596483092 l 5.683536367568889 5.634959425552953 a29.003458837846686,29.003458837846686 0 0,0 -0.35357713365079674,0.35055512502646075 l -5.585967313788128 -5.731694560808076" fill="#ff5207" stroke="none" /><path d="M 114.65682725009322 115.03919595460226 l 10.063124309323717 10.325652054231478 a35.41823710479047,35.41823710479047 0 0,0 -0.4390638866915747,0.4206132714235977 l -9.88438793676683 -10.496877455960655" fill="#ffab0f" stroke="none" /><path d="M 114.13192950727249 115.5334660781643 l 12.540432500979646 13.784132079008137 a39.63504076956012,39.63504076956012 0 0,0 -0.5072057913362886,0.4535465461990238 l -12.30196168281998 -13.997374155090547" fill="#ffe115" stroke="none" /><path d="M 113.03279911837588 116.46651593811092 l 20.657960614546642 26.100658394149384 a54.28656944415031,54.28656944415031 0 0,0 -0.7356865620797206,0.5720743204335832 l -20.20686410783169 -26.45143376620376" fill="#71ff27" stroke="none" /><path d="M 112.45986205192187 116.90419585922612 l 9.266917277836502 12.57235305038006 a36.61857282397036,36.61857282397036 0 0,0 -0.5092056494096715,0.36862562135267324 l -9.04973061805286 -12.729579443105811" fill="#ffba11" stroke="none" /><path d="M 112.16784306229584 117.11559508785304 l 8.147159436433169 11.460000044071965 a35.06086085176834,35.06086085176834 0 0,0 -0.49353155121221537,0.3445233523379829 l -7.949232794047195 -11.59816821221507" fill="#ffa60f" stroke="none" /><path d="M 110.96478420261333 117.91015095944535 l 4.319691252217619 7.055891023096811 a29.27316932283533,29.27316932283533 0 0,0 -0.4308275118779108,0.2586995422028353 l -4.197930983782272 -7.129004565835569" fill="#ff5608" stroke="none" /><line stroke="#e1ed5e" stroke-width="0.3" x1="143.1302829299769" x2="145.66735839644613" y1="173.24464959558577" y2="177.55315839532614" /><path d="M 143.63769802327073 174.10635135553383 a86.0,86.0 0 0,1 -40.68552437913181,11.842963189579606" fill="none" id="id102" stroke="none" /><text fill="#e1ed5e" style="font-size:6.75px; font-family:Arial;" text-anchor="middle"><textPath startOffset="21.407464694133747" xlink:href="#id102">June</textPath></text><path d="M 110.65571695917076 118.09573695890943 l 7.604373973358945 12.91388948170683 a35.98649542329484,35.98649542329484 0 0,0 -0.5350121393552355,0.308889402676464 l -7.381569366143311 -13.042525781659466" fill="#ffb210" stroke="none" /><path d="M 110.02825361518725 118.45085714620011 l 7.756571664306914 14.271218221450829 a37.2429084066801,37.2429084066801 0 0,0 -0.5643385708401233,0.30047850247595387 l -7.510444277680237 -14.402267191649353" fill="#ffc312" stroke="none" /><path d="M 109.06512990194946 118.94263497670748 l 11.310766030047231 23.635150795583385 a47.20217130919566,47.20217130919566 0 0,0 -0.7339067458201411,0.3435054141678344 l -10.903370570355584 -23.825832441321754" fill="#c0ff1e" stroke="none" /><path d="M 108.4095320186766 119.2426549942271 l 8.472406471749421 19.386524047314023 a42.15700796567479,42.15700796567479 0 0,0 -0.6656088179608808,0.28410882484063926 l -8.13836257861811 -19.529107521814066" fill="#fdff18" stroke="none" /><path d="M 107.74402155503746 119.51999308798841 l 4.578037702276881 11.53964560530755 a33.41458214760217,33.41458214760217 0 0,0 -0.5349956835815419,0.2069478234256081 l -4.3792697562018095 -11.6165333168712" fill="#ff900d" stroke="none" /><path d="M 107.06938296918513 119.77432235084164 l 2.0678039166884012 5.784015576064145 a27.14252791788727,27.14252791788727 0 0,0 -0.4400892422927366,0.15308588336406484 l -1.9682089023506428 -5.8186598919968" fill="#ff3805" stroke="none" /><path d="M 106.38641147887787 120.00534299687104 l 8.267853511983178 25.89893336847284 a48.1866171363818,48.1866171363818 0 0,0 -0.7901672848162752,0.2447958446744778 l -7.822045594295279 -26.037045800953962" fill="#b5ff20" stroke="none" /><path d="M 105.69591212413111 120.21278271476187 l 5.0529893754243025 17.93127669100619 a39.629637285722254,39.629637285722254 0 0,0 -0.6563773772469564,0.1788985729492073 l -4.744430597242651 -18.01537575809954" fill="#ffe115" stroke="none" /><path d="M 104.64783097203109 120.47920084513623 l 4.475771798046563 19.72107637751228 a41.22259594304999,41.22259594304999 0 0,0 -0.6914355988412259,0.15069517059480134 l -4.1365737825862015 -19.7950030062408" fill="#fff517" stroke="none" /><path d="M 103.94208987418118 120.62667999033965 l 9.651846887734987 50.50254139891167 a72.41658133416755,72.41658133416755 0 0,0 -1.2230307673430512,0.22287694710834174 l -8.783481386840878 -50.66078651995137" fill="#3effb8" stroke="none" /><path d="M 103.2317021107853 120.74984581791261 l 2.229352841114762 14.314044469778144 a35.486610479093194,35.486610479093194 0 0,0 -0.6027230021415126,0.08857952540831893 l -1.9833047333655636 -14.350205068485346" fill="#ffab0f" stroke="none" /><path d="M 102.51750503828377 120.84855314841334 l 1.8451461193210255 15.280456781718247 a36.39145619035459,36.39145619035459 0 0,0 -0.6208453448319714,0.06956701584788917 l -1.5825648728882549 -15.309879558073106" fill="#ffb711" stroke="none" /><path d="M 101.80034050326958 120.92268563240118 l 2.038490410473509 23.690348545480244 a44.77789009479038,44.77789009479038 0 0,0 -0.7664077166006913,0.059324804366054154 l -1.6315136990975816 -23.721851116841354" fill="#ddff1b" stroke="none" /><path d="M 101.44090949804482 120.95050786540614 l 1.3512689829551296 19.64715444939088 a40.69356762556029,40.69356762556029 0 0,0 -0.6973242924732067,0.04194929782621597 l -1.0138003383494578 -19.667455725041787" fill="#ffef16" stroke="none" /><line stroke="#e1ed5e" stroke-width="0.3" x1="101.45913802915013" x2="101.54496967792366" y1="184.9874750549273" y2="189.98673829345242" /><path d="M 101.47630435890484 185.9873277026323 a86.0,86.0 0 0,1 -42.54439059252881,-10.42667462771756" fill="none" id="id103" stroke="none" /><text fill="#e1ed5e" style="font-size:6.75px; font-family:Arial;" text-anchor="middle"><textPath startOffset="22.145653131862474" xlink:href="#id103">July</textPath></text><path d="M 100.36049292484886 120.99690560180557 l 0.2747275932982493 16.00150500904594 a37.00386321501911,37.00386321501911 0 0,0 -0.6352205181470996,0.005452604167603407 l -1.959907986026522e-15 -16.00386321501911" fill="#ffbf11" stroke="none" /><path d="M 99.63950707515114 120.99690560180557 l -0.3117676892836488 18.15890490590501 a39.161581056554034,39.161581056554034 0 0,0 -0.6720624958438782,-0.017309945923141078 l 0.6234434991982709 -18.15087724263182" fill="#ffdb14" stroke="none" /><path d="M 98.91894614982273 120.97215588758144 l -1.5611046522219227 30.285013200645132 a51.325221718866935,51.325221718866935 0 0,0 -0.8795081387423189,-0.052909025615364015 l 2.080757143096688 -30.253752197205078" fill="#91ff24" stroke="none" /><path d="M 97.12497278360702 120.80226474461374 l -2.167092445716774 15.680001401312282 a36.82904714799466,36.82904714799466 0 0,0 -0.6255236429562184,-0.09193043442489217 l 2.4359411942806775 -15.640489893588507" fill="#ffbd11" stroke="none" /><path d="M 96.76829788921471 120.74984581791261 l -3.6011143122768465 23.121737149921195 a44.40048617273007,44.40048617273007 0 0,0 -0.7521072289057842,-0.12375895830607798 l 3.9974990442356946 -23.05651219311945" fill="#e1ff1b" stroke="none" /><path d="M 94.6519064749342 120.30758222061772 l -4.331408619409443 16.447064034593 a38.00785159819714,38.00785159819714 0 0,0 -0.629516080779378,-0.17157740715008482 l 4.613106101123517 -16.370286133298773" fill="#ffcd13" stroke="none" /><path d="M 93.95794788825049 120.11202640906438 l -9.230163312128143 30.724211718151864 a53.080727866904404,53.080727866904404 0 0,0 -0.8704212311885828,-0.2696587224070502 l 9.75622517618836 -30.561236407938164" fill="#7eff26" stroke="none" /><path d="M 91.59046798132341 119.24265499422711 l -13.334633930595135 30.512252005330602 a54.29879854438866,54.29879854438866 0 0,0 -0.850905087714298,-0.38059902265883044 l 13.856452421165068 -30.278849231761914" fill="#71ff27" stroke="none" /><path d="M 91.26138138417905 119.09545874513695 l -3.6717672066014106 8.023473994901778 a29.82371856794734,29.82371856794734 0 0,0 -0.4637038431788197,-0.21703681238732242 l 3.8089597636517203 -7.959260950943929" fill="#ff5e08" stroke="none" /><path d="M 90.93487009805054 118.94263497670748 l -6.253065536411843 13.066501994219239 a35.48565852723296,35.48565852723296 0 0,0 -0.5472222291538306,-0.26767381393473993 l 6.476448014827743 -12.957234430187277" fill="#ffab0f" stroke="none" /><path d="M 90.28995756902619 118.62028667847754 l -6.761062686752022 12.965229181378001 a35.62221379886938,35.62221379886938 0 0,0 -0.5397803255829763,-0.28740262012518764 l 6.982631828121561 -12.847256093530241" fill="#ffad10" stroke="none" /><line stroke="#e1ed5e" stroke-width="0.3" x1="58.13341422392154" x2="55.67067388415222" y1="173.97424548756322" y2="178.32567169271397" /><path d="M 57.64086615596768 174.84453072859336 a86.0,86.0 0 0,1 -31.369924170532247,-30.572349798747897" fill="none" id="id104" stroke="none" /><text fill="#e1ed5e" style="font-size:6.75px; font-family:Arial;" text-anchor="middle"><textPath startOffset="22.145653131862474" xlink:href="#id104">August</textPath></text><path d="M 89.65649057296885 118.27599006163327 l -9.001197169839186 15.904252921051361 a39.27475886207782,39.27475886207782 0 0,0 -0.5838988352241529,-0.3371141496961762 l 9.27288847292374 -15.747391874079014" fill="#ffdd14" stroke="none" /><path d="M 89.03521579738668 117.91015095944536 l -8.830187079994644 14.423446980849375 a37.91177183730544,37.91177183730544 0 0,0 -0.552132369951807,-0.3445714343834455 l 9.076483578736163 -14.269739749624382" fill="#ffcb12" stroke="none" /><path d="M 88.4268655584334 117.5232005979908 l -9.71836568204403 14.714844296584092 a38.63443433180221,38.63443433180221 0 0,0 -0.5502715579006915,-0.3702472619949497 l 9.969533528041728 -14.54584736053202" fill="#ffd513" stroke="none" /><path d="M 87.83215693770417 117.11559508785305 l -10.74207368254888 15.110071901247792 a39.539320911570286,39.539320911570286 0 0,0 -0.5498205972903215,-0.3980277114827992 l 10.999875290213154 -14.923443418391928" fill="#ffe015" stroke="none" /><path d="M 87.2517909369889 116.68781488649013 l -19.779908879200324 25.89253566647833 a53.58325027539948,53.58325027539948 0 0,0 -0.7261552458333502,-0.56466271127075 l 20.2214740696689 -25.549171903586785" fill="#78ff26" stroke="none" /><path d="M 86.40962598614128 116.0094264158162 l -13.070916535944527 15.397506812990523 a41.197328416048435,41.197328416048435 0 0,0 -0.5352131700403114,-0.4623043889533162 l 13.3333091857477 -15.170858291572484" fill="#fff517" stroke="none" /><path d="M 85.60350026404147 115.28858382429668 l -14.154028182118232 15.031087436710498 a41.64630967776647,41.64630967776647 0 0,0 -0.5162704891093449,-0.4945754500558182 l 14.40997115709289 -14.785899856349097" fill="#fffb17" stroke="none" /><path d="M 85.08716467003676 114.78537596483092 l -11.424795542799373 11.32714830440159 a37.088201947535225,37.088201947535225 0 0,0 -0.444375291980196,-0.455968196898226 l 11.617557635930378 -11.129357415435626" fill="#ffc111" stroke="none" /><path d="M 84.58840730492382 114.26474011684316 l -11.864282884409624 10.981403114350663 a37.16639795134233,37.16639795134233 0 0,0 -0.4293644568772046,-0.4719467516901543 l 12.051045042128708 -10.776118787102833" fill="#ffc212" stroke="none" /><path d="M 84.1078160697243 113.72728997021213 l -12.358019506847276 10.674562915475098 a37.329939974416746,37.329939974416746 0 0,0 -0.41472752095164767,-0.4885479768635217 l 12.539441591306035 -10.460848156162022" fill="#ffc412" stroke="none" /><path d="M 83.64595745247003 113.17365903436017 l -21.46019634747753 17.28681508993564 a48.556741520468535,48.556741520468535 0 0,0 -0.5173225284185481,-0.6536201150631621 l 21.75378530653764 -16.9158750309578" fill="#b0ff20" stroke="none" /><path d="M 83.20337586046588 112.60449989151573 l -11.32971608210733 8.502030166389543 a35.1649914737482,35.1649914737482 0 0,0 -0.35817717417078876,-0.4859361266807319 l 11.47399527586195 -8.306287730439932" fill="#ffa70f" stroke="none" /><path d="M 82.78059297857968 112.02048342749411 l -7.79337743181505 5.440382711600037 a30.504446109237545,30.504446109237545 0 0,0 -0.29605329475363995,-0.4319506047054654 l 7.885620463384015 -5.305797371824521" fill="#ff6809" stroke="none" /><path d="M 82.37810715431573 111.42229804090323 l -32.98735850122363 21.382007238534417 a60.31101696009643,60.31101696009643 0 0,0 -0.5556721324680743,-0.8736088869278108 l 33.3495483253176 -20.812584676927937" fill="#33ff2f" stroke="none" /><line stroke="#e1ed5e" stroke-width="0.3" x1="26.387840678322732" x2="22.057713659400548" y1="142.50000000000003" y2="145.00000000000006" /><path d="M 25.521815274538298 143.00000000000003 a86.0,86.0 0 0,1 -11.493303480769221,-40.785679425670985" fill="none" id="id105" stroke="none" /><text fill="#e1ed5e" style="font-size:6.75px; font-family:Arial;" text-anchor="middle"><textPath startOffset="21.40746469413373" xlink:href="#id105">September</textPath></text><path d="M 81.63589988554817 110.18625677009913 l -14.018997779123858 7.776101750024015 a37.031221324584294,37.031221324584294 0 0,0 -0.30357604573576946,-0.5585457316711846 l 14.150419174474957 -7.5343011848782435" fill="#ffc011" stroke="none" /><path d="M 81.29705330413844 109.54985784667822 l -14.116287857420554 7.207877162532128 a36.8500181723464,36.8500181723464 0 0,0 -0.282832815579422,-0.5658550933508821 l 14.237940586211714 -6.964490213017493" fill="#ffbd11" stroke="none" /><path d="M 80.9802524753101 108.90220220490708 l -28.88845497661879 13.521255592661058 a52.896193875417154,52.896193875417154 0 0,0 -0.37786908720720996,-0.825712150060459 l 29.116308528681053 -13.02335446038591" fill="#80ff26" stroke="none" /><path d="M 80.68587082218212 108.24405325689762 l -17.375528878127152 7.416580065259076 a39.89218525367113,39.89218525367113 0 0,0 -0.26342929045937663,-0.6321343990365554 l 17.500284013123014 -7.117213156781239" fill="#ffe515" stroke="none" /><path d="M 80.28708602549918 107.23885506374661 l -10.809832126028724 3.969520088454363 a32.51562244629292,32.51562244629292 0 0,0 -0.18790906719035483,-0.5256151043824913 l 10.876381363263022 -3.7833700276909505" fill="#ff830c" stroke="none" /><path d="M 80.05021161711548 106.5578916946017 l -25.0514343122639 8.234904043152639 a47.370210573706174,47.370210573706174 0 0,0 -0.2473069761875983,-0.7746855805509603 l 25.189106004228755 -7.803649428910287" fill="#beff1f" stroke="none" /><path d="M 79.407916724674 104.11899336999214 l -23.276343801460076 4.655920652319422 a44.73743410489987,44.73743410489987 0 0,0 -0.14416895426958376,-0.7543528887398171 l 23.352839048011816 -4.25566519854629" fill="#ddff1b" stroke="none" /><path d="M 79.2786578344484 103.40968896794605 l -16.85134009245713 2.772881599526854 a38.07795465729569,38.07795465729569 0 0,0 -0.10059562413397484,-0.6458960693717671 l 16.89645720872937 -2.4831973482236367" fill="#ffcd13" stroke="none" /><path d="M 79.22317932658666 103.0534771498775 l -11.362092807705174 1.6698363675781527 a32.484141520609725,32.484141520609725 0 0,0 -0.07634621471612316,-0.552403177861561 l 11.38908353897651 -1.4745448815165059" fill="#ff830c" stroke="none" /><path d="M 79.17382384314188 102.69636545807758 l -14.274940425623171 1.848176832360586 a35.394084957327614,35.394084957327614 0 0,0 -0.0728408814573335,-0.6032269907494262 l 14.304563393340167 -1.6028561646877606" fill="#ffaa0f" stroke="none" /><path d="M 79.0935383218832 101.97986365728391 l -42.33565413805427 4.009230463087388 a63.52506954965622,63.52506954965622 0 0,0 -0.0934918936978063,-1.0865175212492262 l 42.39823965444981 -3.281891894462499" fill="#33ff53" stroke="none" /><path d="M 79.03789590574601 101.26102812881392 l -16.206700319731965 0.9749548464479587 a37.235999267252154,37.235999267252154 0 0,0 -0.03290671244744879,-0.6383814303816266 l 16.221048621635987 -0.6966016226896014" fill="#ffc312" stroke="none" /><path d="M 79.00696218219943 100.54070618675478 l -20.483860943959076 0.5275915966593278 a41.49065426149974,41.49065426149974 0 0,0 -0.012227035805399524,-0.7121635374771125 l 20.48989941136314 -0.17588114321316295" fill="#fff917" stroke="none" /><line stroke="#e1ed5e" stroke-width="0.3" x1="15.003131293944662" x2="10.003315487706104" y1="100.72959589197737" y2="100.7725132973878" /><path d="M 14.003168132696942 100.73817937305945 a86.0,86.0 0 0,1 10.791469493833604,-42.45332614584628" fill="none" id="id106" stroke="none" /><text fill="#e1ed5e" style="font-size:6.75px; font-family:Arial;" text-anchor="middle"><textPath startOffset="22.145653131862435" xlink:href="#id106">October</textPath></text><path d="M 79.00077361379809 100.18025310272382 l -14.040583042720172 0.12052151879103276 a35.04110029933598,35.04110029933598 0 0,0 0.0,-0.6015492430296955 l 14.040583042720172 0.1205215187910276" fill="#ffa60f" stroke="none" /><path d="M 79.01933749520258 99.09900007780938 l -25.245904624521202 -1.0841677710188737 a46.269173315843496,46.269173315843496 0 0,0 0.040889633995263054,-0.7932479757545345 l 25.22357340106937 1.5173875401501205" fill="#cbff1d" stroke="none" /><path d="M 79.06263194458094 98.37931529534042 l -38.14207094131292 -2.952437518173507 a59.25616895339713,59.25616895339713 0 0,0 0.08720921500761768,-1.0135032714862329 l 38.08576810360756 3.60676183703542" fill="#3dff2e" stroke="none" /><path d="M 79.13060592940154 97.66154086499901 l -15.633368710262687 -1.751751572071594 a36.73120627292376,36.73120627292376 0 0,0 0.07559267163245471,-0.626015760919474 l 15.600993952370564 2.0198610099145045" fill="#ffbc11" stroke="none" /><path d="M 79.17382384314186 97.30363454192245 l -16.710693267457106 -2.1635338032067257 a37.85016759550641,37.85016759550641 0 0,0 0.08895777714964877,-0.6436541611877284 l 16.67109097375225 2.4500762725945213" fill="#ffcb12" stroke="none" /><path d="M 79.2786578344484 96.59031103205396 l -21.196652435090872 -3.4879010919219544 a42.48170217839066,42.48170217839066 0 0,0 0.12458301818555885,-0.7185617422455618 l 21.133654599413077 3.851255867088109" fill="#f9ff18" stroke="none" /><path d="M 79.407916724674 95.88100663000787 l -11.761002876443037 -2.3525299613844113 a32.993981235557804,32.993981235557804 0 0,0 0.11585960501561518,-0.5544301516488696 l 11.718885560603054 2.55407656431869" fill="#ff8a0c" stroke="none" /><path d="M 79.83685265289637 94.1308016681162 l -28.290838155532207 -8.235050671982313 a50.46502304619213,50.46502304619213 0 0,0 0.24925799530727077,-0.8296987996084602 l 28.145303840221306 8.719487075181496" fill="#9bff22" stroke="none" /><path d="M 80.05021161711548 93.44210830539832 l -16.460069890621927 -5.410751911578189 a38.326573147994544,38.326573147994544 0 0,0 0.2108227590365003,-0.6232600263420808 l 16.364761710013063 5.692513612394432" fill="#ffd113" stroke="none" /><path d="M 80.28708602549916 92.7611449362534 l -15.151423084148245 -5.563812425576769 a37.14068245712872,37.14068245712872 0 0,0 0.2249121519399159,-0.5966062041917325 l 15.053680248393894 5.8230869099626466" fill="#ffc112" stroke="none" /><path d="M 80.41425534168474 92.42381321644754 l -17.58446226492862 -6.802047761348112 a39.8542082012043,39.8542082012043 0 0,0 0.2522986307830367,-0.6359573632372213 l 17.465104959179452 7.102906141798916" fill="#ffe415" stroke="none" /><path d="M 80.68587082218212 91.75594674310238 l -19.776490298064456 -8.441407725439186 a42.50271919773269,42.50271919773269 0 0,0 0.2921882178237695,-0.6685838232703117 l 19.628668198223707 8.779653618485366" fill="#f9ff18" stroke="none" /><path d="M 81.1358732173502 90.77261029715801 l -12.93411810672266 -6.326725302921767 a35.39857160475585,35.39857160475585 0 0,0 0.27169261159213537,-0.5435672228494994 l 12.82360558191878 6.547824381935038" fill="#ffaa0f" stroke="none" /><path d="M 81.29705330413844 90.45014215332179 l -10.803269639905936 -5.516226454479756 a33.130102605073695,33.130102605073695 0 0,0 0.2629771799189575,-0.5042934173355068 l 10.706984391012039 5.700866114919749" fill="#ff8c0c" stroke="none" /><line stroke="#e1ed5e" stroke-width="0.3" x1="26.387840678322718" x2="22.05771365940052" y1="57.49999999999999" y2="54.99999999999999" /><path d="M 25.521815274538284 56.99999999999999 a86.0,86.0 0 0,1 29.574782752854787,-30.34633250058573" fill="none" id="id107" stroke="none" /><text fill="#e1ed5e" style="font-size:6.75px; font-family:Arial;" text-anchor="middle"><textPath startOffset="21.40746469413373" xlink:href="#id107">November</textPath></text><path d="M 81.81346652052679 89.5 l -25.85453999749639 -14.92712562732849 a50.85425125465697,50.85425125465697 0 0,0 0.44297997648297205,-0.7522768447411571 l 25.594486310883635 15.36875364036322" fill="#96ff23" stroke="none" /><path d="M 82.18462484594161 88.88188828441811 l -12.537329359902854 -7.824220777449696 a35.77846603179632,35.77846603179632 0 0,0 0.32964286656745895,-0.518253338468861 l 12.401168801709506 8.038287790597229" fill="#ffaf10" stroke="none" /><path d="M 82.78059297857968 87.97951657250589 l -13.316329051272545 -9.295831876019916 a37.23998490359499,37.23998490359499 0 0,0 0.37042240844441704,-0.5210455067461846 l 13.154791544298156 9.52305460947562" fill="#ffc312" stroke="none" /><path d="M 83.2033758604659 87.39550010848427 l -24.16109497753403 -18.13093610319223 a51.20743872776141,51.20743872776141 0 0,0 0.5336498433486228,-0.6985647753334505 l 23.846293156831102 18.543021791766567" fill="#92ff23" stroke="none" /><path d="M 83.64595745247003 86.82634096563983 l -13.480661801718883 -10.859066901485477 a38.31033149836421,38.31033149836421 0 0,0 0.41694991047493546,-0.5086110956723 l 13.292265072005318 11.08888027885627" fill="#ffd013" stroke="none" /><path d="M 83.8745106332314 86.54754324733833 l -10.732299906080286 -8.953266289125434 a34.97652455076157,34.97652455076157 0 0,0 0.38858158701521683,-0.45774813242942264 l 10.577023755557954 9.136181204004414" fill="#ffa50f" stroke="none" /><path d="M 84.34580500576568 86.00192230759919 l -11.673678310329729 -10.438675128569434 a36.6601629535863,36.6601629535863 0 0,0 0.4235161819072329,-0.46551847303117433 l 11.49276442758063 10.637531177158266" fill="#ffbb11" stroke="none" /><path d="M 84.83555147118756 85.47280134310135 l -33.08210753563048 -31.69191067158599 a66.81269519483442,66.81269519483442 0 0,0 0.8005217124623188,-0.821405799100078 l 32.53319902201735 32.2551391627538" fill="#37ff79" stroke="none" /><path d="M 85.34317274990677 84.96080404539775 l -12.391816535901626 -12.715095425288549 a38.754739331616186,38.754739331616186 0 0,0 0.4804249976732338,-0.46023628011784556 l 12.171719052363091 12.925943835711962" fill="#ffd614" stroke="none" /><path d="M 85.86807049272753 84.46653392183569 l -11.30270404141376 -12.423651683832738 a37.79578041678894,37.79578041678894 0 0,0 0.48366895411879746,-0.4324997612237999 l 11.087770060471572 12.615846974939938" fill="#ffca12" stroke="none" /><path d="M 86.68645165197937 83.75963576809568 l -11.622291278225306 -14.17730560130695 a39.3323116018892,39.3323116018892 0 0,0 0.5258341039227539,-0.4235747322769968 l 11.377206403947307 14.374728627377346" fill="#ffde14" stroke="none" /><path d="M 88.4268655584334 82.4767994020092 l -1.2884521029116813 -1.9508807034275004 a23.33795730082979,23.33795730082979 0 0,0 0.33619368558443086,-0.21791668521895166 l 1.2547727850702244 1.9727112303503584" fill="#ff0000" stroke="none" /><path d="M 88.72937992617638 82.28071324371311 l -32.235937870120935 -50.68024857879348 a81.06366028119328,81.06366028119328 0 0,0 1.1805797697902216,-0.7367690916513515 l 31.361193971541013 51.226153467286366" fill="#49eeff" stroke="none" /><line stroke="#e1ed5e" stroke-width="0.3" x1="56.869717070023135" x2="54.33264160355391" y1="26.7553504044142" y2="22.446841604673864" /><path d="M 56.362301976729285 25.89364864446614 a86.0,86.0 0 0,1 42.16139366436587,-11.88097634709845" fill="none" id="id108" stroke="none" /><text fill="#e1ed5e" style="font-size:6.75px; font-family:Arial;" text-anchor="middle"><textPath startOffset="22.145653131862474" xlink:href="#id108">December</textPath></text><path d="M 89.65649057296885 81.72400993836675 l -6.755530128319319 -11.936374434345652 a34.71547381432849,34.71547381432849 0 0,0 0.5211549943276995,-0.289075890250885 l 6.549630945835516 12.050583240029683" fill="#ffa10e" stroke="none" /><path d="M 90.28995756902619 81.37971332152246 l -8.322323885471045 -15.95915338992711 a38.99876806278429,38.99876806278429 0 0,0 0.5962591815078937,-0.3044541865928059 l 8.04713748224957 16.09966552819275" fill="#ffd914" stroke="none" /><path d="M 90.93487009805054 81.0573650232925 l -11.010451519871987 -23.0076089725771 a46.506471988624014,46.506471988624014 0 0,0 0.7230899039192208,-0.3384425859838338 l 10.613872902081244 23.193227790131473" fill="#c8ff1d" stroke="none" /><path d="M 91.92203290615298 80.6158196554323 l -5.422183192271877 -13.011265784969563 a35.095854280520754,35.095854280520754 0 0,0 0.5581001889376321,-0.22697448821575936 l 5.198028542143804 13.102427529764613" fill="#ffa60f" stroke="none" /><path d="M 92.93061703081487 80.22567764915836 l -8.533610724523523 -23.870027981067 a46.349570959182415,46.349570959182415 0 0,0 0.7515124466567669,-0.2614150397228153 l 8.122592505821752 24.013001453358402" fill="#caff1d" stroke="none" /><path d="M 93.95794788825049 79.88797359093562 l -4.904385690639729 -16.32510489914044 a38.04588070386775,38.04588070386775 0 0,0 0.6271047940841421,-0.18254106603470152 l 4.623420884173963 16.406889659477663" fill="#ffcd13" stroke="none" /><path d="M 94.6519064749342 79.69241777938228 l -1.9487113777684217 -7.399574510581978 a28.65187421299505,28.65187421299505 0 0,0 0.4767053899615598,-0.12117664598630293 l 1.8214006945814838 7.431936388403543" fill="#ff4d07" stroke="none" /><path d="M 95.00130118170881 79.60360301121753 l -0.6007372155872696 -2.451212841673548 a23.523753077734995,23.523753077734995 0 0,0 0.3930346942066255,-0.0927551176547749 l 0.5585703676407381 2.4611641029745552" fill="#ff0300" stroke="none" /><path d="M 95.35216902796891 79.52079915486377 l -1.5682224835560583 -6.909877619015106 a28.08560021929664,28.08560021929664 0 0,0 0.47108590233555275,-0.10267097982261156 l 1.4493741646013871 6.935780056971431" fill="#ff4506" stroke="none" /><path d="M 95.70440661134978 79.44403061299748 l -6.070756177037496 -29.050765945598872 a50.67829312118549,50.67829312118549 0 0,0 0.853093082172876,-0.17064250869976888 l 5.571166609333643 29.150697850961507" fill="#98ff23" stroke="none" /><path d="M 96.76829788921471 79.25015418208739 l -1.9062165098825068 -12.23927742090376 a33.38683063452444,33.38683063452444 0 0,0 0.5670592519363389,-0.0833381822768422 l 1.6958321523384832 12.270196676479486" fill="#ff8f0d" stroke="none" /><path d="M 97.48249496171623 79.15144685158666 l -2.6425466000269995 -21.884076655266526 a43.043045696702066,43.043045696702066 0 0,0 0.7343227599468839,-0.08228239690275263 l 2.2664879384793166 21.926214812676246" fill="#f2ff19" stroke="none" /></svg>