<?xml version="1.0" encoding="utf-8" ?>
<svg baseProfile="full" height="200mm" version="1.1" viewBox="0,0,200,200" width="200mm" xmlns="http://www.w3.org/2000/svg" xmlns:ev="http://www.w3.org/2001/xml-events" xmlns:xlink="http://www.w3.org/1999/xlink"><defs /><rect fill="#1a1a1a" height="200" width="200" x="0" y="0" /><text alignment-baseline="middle" fill="#e1ed5e" style="dominant-baseline: central; font-size:9.0px; font-family:Arial;" text-anchor="middle" x="100.0" y="100.0">2018</text><line stroke="#e1ed5e" stroke-width="0.3" x1="100.0" x2="100.0" y1="15.0" y2="10.0" /><path d="M 100.0 14.0 a86.0,86.0 0 0,1 42.46469731375804,11.215312516191453" fill="none" id="id73" stroke="none" /><text fill="#e1ed5e" style="font-size:6.75px; font-family:Arial;" text-anchor="middle"><textPath startOffset="22.20632615414155" xlink:href="#id73">January</textPath></text><line stroke="#e1ed5e" stroke-width="0.3" x1="143.23703022742887" x2="145.7803849466894" y1="26.81831364943548" y2="22.513508569990506" /><path d="M 143.74570117128098 25.957352633546492 a86.0,86.0 0 0,1 28.547481713284135,27.462654790039103" fill="none" id="id74" stroke="none" /><text fill="#e1ed5e" style="font-size:6.75px; font-family:Arial;" text-anchor="middle"><textPath startOffset="19.985693538727396" xlink:href="#id74">February</textPath></text><path d="M 111.2981086023043 82.29822771554956 l 5.840565501078357 -9.150944122755185 a31.855965351371307,31.855965351371307 0 0,0 0.4596860917589984,0.2989926210805754 l -5.997218618621636 9.04905257751508" fill="#ff4906" stroke="none" /><path d="M 117.45458315368197 88.32363383020206 l 13.012100646529296 -8.704536249843969 a36.655149777637256,36.655149777637256 0 0,0 0.3463097641591639,0.5274535297616552 l -13.160007046046385 8.47926465610464" fill="#ff900d" stroke="none" /><line stroke="#e1ed5e" stroke-width="0.3" x1="172.23445277983987" x2="176.4835382374775" y1="55.19839476539836" y2="52.563006222186495" /><path d="M 173.08426987136738 54.67131705675599 a86.0,86.0 0 0,1 12.851231095245387,41.99856678651699" fill="none" id="id75" stroke="none" /><text fill="#e1ed5e" style="font-size:6.75px; font-family:Arial;" text-anchor="middle"><textPath startOffset="22.20632615414155" xlink:href="#id75">March</textPath></text><path d="M 120.28053869075195 94.5502522615342 l 7.715931090332908 -2.073410309799842 a28.989657245686466,28.989657245686466 0 0,0 0.12535081979671375,0.48302784249425534 l -7.750478241999923 1.9402860417567367" fill="#ff1d02" stroke="none" /><path d="M 120.6074358757038 95.95851677861258 l 10.928186959115722 -2.1432110477909094 a32.1363649279628,32.1363649279628 0 0,0 0.1017870023500968,0.5437502366461149 l -10.963459685375678 1.9547827336822317" fill="#ff4d07" stroke="none" /><path d="M 120.94382443527127 98.46500227214037 l 14.120682305546262 -1.0349215503515323 a35.158556825805,35.158556825805 0 0,0 0.03904175077692598,0.60395860423113 l -14.136404647327605 0.791703881867367" fill="#ff7a0b" stroke="none" /><line stroke="#e1ed5e" stroke-width="0.3" x1="184.98032266829074" x2="189.97916517819016" y1="98.17113171792111" y2="98.06355123074" /><path d="M 185.9800911702706 98.14961562048488 a86.0,86.0 0 0,1 -9.607161424134198,41.387399972396054" fill="none" id="id76" stroke="none" /><text fill="#e1ed5e" style="font-size:6.75px; font-family:Arial;" text-anchor="middle"><textPath startOffset="21.466115282336823" xlink:href="#id76">April</textPath></text><path d="M 120.9764740272857 100.99374915477107 l 6.178431216145732 0.2926998498827523 a27.18536057920356,27.18536057920356 0 0,0 -0.026167397130667333,0.46723645403117064 l -6.172477468127535 -0.3990080202493463" fill="#ff0000" stroke="none" /><line stroke="#e1ed5e" stroke-width="0.3" x1="174.80103733775053" x2="179.2010983576182" y1="140.37084112569926" y2="142.7455964860345" /><path d="M 175.68104954172406 140.8457921977663 a86.0,86.0 0 0,1 -30.038265399797805,32.042727171017184" fill="none" id="id77" stroke="none" /><text fill="#e1ed5e" style="font-size:6.75px; font-family:Arial;" text-anchor="middle"><textPath startOffset="22.206326154141568" xlink:href="#id77">May</textPath></text><path d="M 114.55890576462653 115.13401014063108 l 43.67671729387959 45.40203042189324 a84.0,84.0 0 0,0 -1.0506566624367695,0.9934614530163142 l -42.88872479705202 -46.14712651165547" fill="#4dd2ff" stroke="none" /><path d="M 112.34349029814194 116.9893568818739 l 23.431403621396324 32.25056031575267 a60.86388486272739,60.86388486272739 0 0,0 -0.8528846683834578,0.6085105653991608 l -22.87279162516398 -32.64911514299605" fill="#3dff2e" stroke="none" /><line stroke="#e1ed5e" stroke-width="0.3" x1="143.8653032363475" x2="146.44561519142675" y1="172.8068346515853" y2="177.08958963109032" /><path d="M 144.38136562736335 173.6633856474863 a86.0,86.0 0 0,1 -40.68145358897372,12.25698825130547" fill="none" id="id78" stroke="none" /><text fill="#e1ed5e" style="font-size:6.75px; font-family:Arial;" text-anchor="middle"><textPath startOffset="21.466115282336833" xlink:href="#id78">June</textPath></text><path d="M 109.2508944713604 118.85261126421891 l 3.132367223239763 6.383523428933456 a28.110632587116925,28.110632587116925 0 0,0 -0.43623328831625,0.20941848824507386 l -3.0220212669232804 -6.43649619367809" fill="#ff0f01" stroke="none" /><path d="M 102.34483914955558 120.86867818915974 l 1.3374971974907781 11.903502463539187 a32.97840847745556,32.97840847745556 0 0,0 -0.5646647954437369,0.05852981482279712 l -1.1323998054414386 -11.924761646817743" fill="#ff5a08" stroke="none" /><path d="M 101.62511606390274 120.93702456842531 l 1.0417183016777467 13.420876305429651 a34.46124428965218,34.46124428965218 0 0,0 -0.5918099047972863,0.04081467597677925 l -0.8105456361015301 -13.436819325922714" fill="#ff700a" stroke="none" /><line stroke="#e1ed5e" stroke-width="0.3" x1="102.19456741930631" x2="102.32365962044197" y1="184.97166512339345" y2="189.96999836594603" /><path d="M 102.22038585953345 185.97133177190398 a86.0,86.0 0 0,1 -42.740103519485714,-10.115201625700543" fill="none" id="id79" stroke="none" /><text fill="#e1ed5e" style="font-size:6.75px; font-family:Arial;" text-anchor="middle"><textPath startOffset="22.20632615414155" xlink:href="#id79">July</textPath></text><path d="M 94.81253420990036 120.34920634021253 l -4.242319043759038 16.64161829215795 a38.17383854154122,38.17383854154122 0 0,0 -0.6353391145161799,-0.16779883465107626 l 4.528148601086707 -16.566128108203294" fill="#ffa60f" stroke="none" /><path d="M 94.46302465271185 120.25689768951611 l -2.6395113411922453 9.65659188189017 a31.010833476472857,31.010833476472857 0 0,0 -0.5137001151220452,-0.14517678374524873 l 2.8053426244189046 -9.6097263048064" fill="#ff3c05" stroke="none" /><path d="M 92.06813273071674 119.44442032107085 l -4.541176762307286 11.132378634288663 a33.02298384111392,33.02298384111392 0 0,0 -0.5244813144555054,-0.21923323197909608 l 4.732129536260254 -11.052560359289595" fill="#ff5a08" stroke="none" /><path d="M 91.07499286063937 119.00905698771935 l -6.427374376927656 13.689437319730539 a36.12322173057108,36.12322173057108 0 0,0 -0.5605762072862613,-0.26911064565742493 l 6.662063252214159 -13.576772397573551" fill="#ff880c" stroke="none" /><path d="M 90.42595943632237 118.69057910512821 l -7.317776200827563 14.285867502388564 a37.05103918197199,37.05103918197199 0 0,0 -0.5651326152777569,-0.2956506744964339 l 7.562599718631815 -14.157787408947414" fill="#ff960d" stroke="none" /><path d="M 90.10565033884886 118.52300852407294 l -8.594802750295164 16.09015347734546 a39.241811128312165,39.241811128312165 0 0,0 -0.5930693177659812,-0.32338867893486056 l 8.870494879929787 -15.939824146650833" fill="#ffb510" stroke="none" /><line stroke="#e1ed5e" stroke-width="0.3" x1="58.666819895761336" x2="56.23545636021788" y1="174.27360380694188" y2="178.64263932499728" /><path d="M 58.180547188652646 175.14741091055294 a86.0,86.0 0 0,1 -31.652253787137756,-30.449443065178592" fill="none" id="id80" stroke="none" /><text fill="#e1ed5e" style="font-size:6.75px; font-family:Arial;" text-anchor="middle"><textPath startOffset="22.20632615414155" xlink:href="#id80">August</textPath></text><path d="M 88.54995079064634 117.60387380957326 l -8.216297111022214 12.63214287378254 a36.06912644449727,36.06912644449727 0 0,0 -0.5175495424797405,-0.34300361564159826 l 8.432521352241917 -12.488841237049623" fill="#ff880c" stroke="none" /><path d="M 87.95078237400918 117.19931262002967 l -8.420673289722904 12.019850323615387 a35.67598516128882,35.67598516128882 0 0,0 -0.4999270230969486,-0.3566846570939559 l 8.626327640668741 -11.873121404677212" fill="#ff820c" stroke="none" /><path d="M 87.65650970185807 116.9893568818739 l -8.787346152419191 12.094744373111709 a35.94992621564915,35.94992621564915 0 0,0 -0.49750423193387183,-0.3680417371382865 l 8.994235354771629 -11.941692687233656" fill="#ff860c" stroke="none" /><path d="M 86.79598089348748 116.32954008644616 l -11.328274316510385 14.009788085695495 a39.0167688889047,39.0167688889047 0 0,0 -0.518606937360074,-0.4267782028667954 l 11.567751382415148 -13.812714763971519" fill="#ffb210" stroke="none" /><path d="M 86.24171649860922 115.8653595955263 l -10.865297198111017 12.529313496328964 a37.584281108705625,37.584281108705625 0 0,0 -0.4851193716677682,-0.4280614416346347 l 11.079358922685374 -12.340428912922041" fill="#ff9e0e" stroke="none" /><path d="M 85.97065885151581 115.62618273729859 l -10.076141284808479 11.22302347179488 a36.082601865722,36.082601865722 0 0,0 -0.45859346163663395,-0.4189142540590349 l 10.267834295911968 -11.04791645114927" fill="#ff880c" stroke="none" /><path d="M 85.70375840098266 115.38237550388516 l -6.822783568904884 7.341133549802804 a31.022106436481245,31.022106436481245 0 0,0 -0.3880188429798863,-0.3668960349525268 l 6.948138246275588 -7.222602878104347" fill="#ff3c05" stroke="none" /><path d="M 83.95833913139862 113.55231037782056 l -13.87016006660776 11.717783822536907 a39.15730701356972,39.15730701356972 0 0,0 -0.4305513725157205,-0.5186268641697517 l 14.069807439017016 -11.477295701253393" fill="#ffb410" stroke="none" /><path d="M 83.50135304334701 112.99209946851258 l -23.481560315875278 18.49089613840786 a50.8880731207195,50.8880731207195 0 0,0 -0.5360045171053146,-0.692858092494647 l 23.796371650198658 -18.08396005179996" fill="#afff20" stroke="none" /><path d="M 82.85270091963577 112.12312394758628 l -11.772540519711134 8.323174817768932 a35.41762634192548,35.41762634192548 0 0,0 -0.3476646364092871,-0.5008368388014384 l 11.914066063282556 -8.11929671678048" fill="#ff7e0b" stroke="none" /><line stroke="#e1ed5e" stroke-width="0.3" x1="26.63291911575756" x2="22.317208475507996" y1="142.92168965132927" y2="145.44649492493687" /><path d="M 25.769776987707644 143.4266507060508 a86.0,86.0 0 0,1 -11.730757126820373,-40.83630448921669" fill="none" id="id81" stroke="none" /><text fill="#e1ed5e" style="font-size:6.75px; font-family:Arial;" text-anchor="middle"><textPath startOffset="21.46611528233685" xlink:href="#id81">September</textPath></text><path d="M 81.51974371655577 109.97397251340807 l -12.96549229168968 6.997601210539904 a35.73330964405534,35.73330964405534 0 0,0 -0.2874787160565066,-0.5438013915961051 l 13.084023515971072 -6.773384803857673" fill="#ff830c" stroke="none" /><path d="M 81.18737489456691 109.33194174019688 l -15.958217271015465 7.916021980766073 a38.81370546710897,38.81370546710897 0 0,0 -0.291743666985649,-0.6010783656102116 l 16.092114194615835 -7.640154659190578" fill="#ffaf10" stroke="none" /><path d="M 80.87730276802145 108.67885076344099 l -14.277752884305801 6.4799690659202245 a36.67942047782971,36.67942047782971 0 0,0 -0.25598552751980963,-0.5771797863515573 l 14.38717949655689 -6.2332409430759705" fill="#ff900d" stroke="none" /><path d="M 80.58989483394504 108.01547362559985 l -16.5056537822999 6.816069847817157 a38.85764304020755,38.85764304020755 0 0,0 -0.2499793328976976,-0.6204282035962002 l 16.620535729454982 -6.530942276378151" fill="#ffb010" stroke="none" /><path d="M 80.32549172779594 107.34259656027581 l -16.74965877993913 6.251032312564981 a38.87810040852001,38.87810040852001 0 0,0 -0.22859534184071884,-0.6289962029529549 l 16.854778382785074 -5.9617883126059095" fill="#ffb010" stroke="none" /><path d="M 80.0844068197444 106.66101706037122 l -18.43153302548094 6.164654741654474 a40.43513256330395,40.43513256330395 0 0,0 -0.21509131611934482,-0.6619830026098686 l 18.534916592616536 -5.846472839066802" fill="#ffc612" stroke="none" /><path d="M 79.97269907076064 106.31721596034903 l -7.111953929070545 2.243325200371761 a28.45737196630589,28.45737196630589 0 0,0 -0.14333467042236864,-0.4684259962288305 l 7.149515371999044 -2.1205722315908826" fill="#ff1402" stroke="none" /><path d="M 79.86692584326677 105.97154293290107 l -14.96024083710325 4.437261778794219 a36.604425590122815,36.604425590122815 0 0,0 -0.17397100935471296,-0.6056159064160209 l 15.034404483344067 -4.179088396873603" fill="#ff8f0d" stroke="none" /><path d="M 79.67330655649465 105.27499134158121 l -14.490607052632962 3.760465367834699 a35.97059760118147,35.97059760118147 0 0,0 -0.1503719755918591,-0.6006612942368237 l 14.553190342519878 -3.5104762342004836" fill="#ff860c" stroke="none" /><path d="M 79.50377843672027 104.57218783832718 l -9.16254104883619 2.0439308104824576 a30.38774795303153,30.38774795303153 0 0,0 -0.10949134094597802,-0.5115070933553049 l 9.196366428506607 -1.8859098977109887" fill="#ff3204" stroke="none" /><path d="M 79.35854240842038 103.8639653848113 l -23.094183993542927 4.323102045754516 a44.49533029403122,44.49533029403122 0 0,0 -0.13444700030710255,-0.7540501776941959 l 23.165177436189218 -3.9249331173271065" fill="#fffd17" stroke="none" /><path d="M 79.23777060512086 103.15116336523772 l -12.407876243806244 1.883191073379106 a33.54997217130246,33.54997217130246 0 0,0 -0.0817436268814945,-0.5717147360205779 l 12.438453921704337 -1.6693308653781274" fill="#ff6209" stroke="none" /><path d="M 79.1416061653843 102.43462659150553 l -8.497612256805644 0.9918555056904039 a29.555301947399744,29.555301947399744 0 0,0 -0.05463184762093035,-0.5058230584619682 l 8.513426405927625 -0.8454361253436536" fill="#ff2503" stroke="none" /><path d="M 79.0235259727143 100.99374915477108 l -14.667393509232593 0.6948598646052219 a35.68384359035868,35.68384359035868 0 0,0 -0.02378560485411278,-0.6138007723253003 l 14.677181246937906 -0.44228184526592473" fill="#ff820c" stroke="none" /><line stroke="#e1ed5e" stroke-width="0.3" x1="15.007084014347285" x2="10.007500721073583" y1="101.09737516637583" y2="101.16192664675087" /><path d="M 14.007167355692545 101.11028546245083 a86.0,86.0 0 0,1 10.666146001902534,-42.60595125391555" fill="none" id="id82" stroke="none" /><text fill="#e1ed5e" style="font-size:6.75px; font-family:Arial;" text-anchor="middle"><textPath startOffset="22.20632615414155" xlink:href="#id82">October</textPath></text><path d="M 79.08570108090925 98.10471618934814 l -20.51201058437257 -1.8588278638876286 a41.59606319763506,41.59606319763506 0 0,0 0.07075861608205669,-0.7125296075502024 l 20.476974842608286 2.2116330021422614" fill="#ffd614" stroke="none" /><path d="M 79.16333360222342 97.38593545837743 l -29.66169429967354 -3.72120865367881 a50.89420516708046,50.89420516708046 0 0,0 0.11653319091450921,-0.8683076288839507 l 29.593245109701197 4.231234624627421" fill="#afff20" stroke="none" /><path d="M 79.26566170972629 96.67025291283419 l -17.41954560757282 -2.7974213806367825 a38.64273605638177,38.64273605638177 0 0,0 0.11112204267667873,-0.6558485861359448 l 17.368811703375922 3.0968557550885554" fill="#ffad10" stroke="none" /><path d="M 79.46518482838121 95.60439243477599 l -29.296037805352192 -6.271002895914703 a50.9596947316423,50.9596947316423 0 0,0 0.19099114343061635,-0.8561758463996827 l 29.183752274919538 6.774356911864344" fill="#afff20" stroke="none" /><path d="M 79.62865764111835 94.90015583598534 l -14.634000264811698 -3.663534760346835 a36.08560408769826,36.08560408769826 0 0,0 0.1560335818018492,-0.6012610407863882 l 14.568770351139541 3.914892226682087" fill="#ff880c" stroke="none" /><path d="M 79.81627453868168 94.20196356495316 l -41.52158162619986 -11.927611855940993 a64.20080630413236,64.20080630413236 0 0,0 0.31426020422563594,-1.0595291815328478 l 41.31011552486252 12.64057042422038" fill="#32ff4b" stroke="none" /><path d="M 80.02781315780177 93.51064311812611 l -11.984854879263859 -3.894115406765876 a33.601622168523626,33.601622168523626 0 0,0 0.1834691872143488,-0.5485495173719747 l 11.916048398277738 4.099838027060173" fill="#ff6309" stroke="none" /><path d="M 80.38941819471856 92.48833698450439 l -34.132075335472564 -13.073994972985961 a57.55034762160323,57.55034762160323 0 0,0 0.3623108172441345,-0.9220415107563401 l 33.90197096834674 13.659585488638065" fill="#61ff29" stroke="none" /><path d="M 80.65960295795068 91.81776055985345 l -13.495858721600953 -5.709621538298478 a35.65394079229251,35.65394079229251 0 0,0 0.24399059631292597,-0.563163936174389 l 13.395577415445347 5.941084619059467" fill="#ff820b" stroke="none" /><path d="M 81.26839172434947 90.50648371742162 l -15.580617786159348 -7.896537578025834 a38.467425577902404,38.467425577902404 0 0,0 0.3044249172220347,-0.5880520435679595 l 15.442383435777199 8.163562343854128" fill="#ffaa0f" stroke="none" /><path d="M 81.43458229118936 90.18545643968196 l -13.468436490241169 -7.120042150202572 a36.2346244362085,36.2346244362085 0 0,0 0.2962472163598784,-0.5489010997601811 l 13.343881174662819 7.350824233295226" fill="#ff8a0c" stroke="none" /><line stroke="#e1ed5e" stroke-width="0.3" x1="26.266209847984243" x2="21.928928074336255" y1="57.711370442889674" y2="55.22380399835377" /><path d="M 25.398753493254645 57.213857153982495 a86.0,86.0 0 0,1 29.58750427330803,-30.492523968695096" fill="none" id="id83" stroke="none" /><text fill="#e1ed5e" style="font-size:6.75px; font-family:Arial;" text-anchor="middle"><textPath startOffset="21.46611528233685" xlink:href="#id83">November</textPath></text><path d="M 81.78341655067845 89.55222093294921 l -12.771469733735369 -7.324836433286433 a35.72289604439693,35.72289604439693 0 0,0 0.31051757489556936,-0.5307751912473125 l 12.643492484369474 7.543591036887637" fill="#ff830c" stroke="none" /><path d="M 83.84228863543731 86.58626213691792 l -15.943424845189126 -13.23584242148053 a41.72149416428404,41.72149416428404 0 0,0 0.4634848465707786,-0.5486198676937193 l 15.713229385131223 13.508321238803365" fill="#ffd814" stroke="none" /><path d="M 85.83668400450813 84.49514656593479 l -11.903359673088863 -13.03083594004045 a38.64915456341091,38.64915456341091 0 0,0 0.4950570436315503,-0.4444671017758613 l 11.677291641861341 13.233802050585592" fill="#ffad10" stroke="none" /><path d="M 86.93701828274178 83.55741782278169 l -18.317711349920074 -23.05679366998623 a50.44748348228262,50.44748348228262 0 0,0 0.6845662126944361,-0.5343147874173435 l 17.91811258206621 23.368686846626797" fill="#b5ff20" stroke="none" /><line stroke="#e1ed5e" stroke-width="0.3" x1="56.762969772571076" x2="54.21961505331055" y1="26.818313649435495" y2="22.513508569990535" /><path d="M 56.25429882871897 25.957352633546506 a86.0,86.0 0 0,1 42.265352541879196,-11.944610805530505" fill="none" id="id84" stroke="none" /><text fill="#e1ed5e" style="font-size:6.75px; font-family:Arial;" text-anchor="middle"><textPath startOffset="22.20632615414155" xlink:href="#id84">December</textPath></text><path d="M 89.3179101791058 81.91981866633112 l -10.411386058261364 -17.621996353185487 a41.46782145529518,41.46782145529518 0 0,0 0.6176795261314779,-0.3577998499900614 l 10.106509799664567 17.798600360565597" fill="#ffd413" stroke="none" /><path d="M 91.90106846888425 80.62456947434976 l -6.26836096434686 -14.996075952461908 a37.25345019223161,37.25345019223161 0 0,0 0.5937776520393223,-0.2422168131357885 l 6.009299442719157 15.101753651781273" fill="#ff990e" stroke="none" /><path d="M 93.25333710446033 80.11325718540243 l -9.375368664455895 -27.635224748717444 a50.18224090961122,50.18224090961122 0 0,0 0.8204012058399635,-0.27047337889927664 l 8.898284636373521 27.792511851875954" fill="#b8ff1f" stroke="none" /><path d="M 98.91598698831166 79.02799685794201 l -1.124304707737979 -21.751511844482007 a42.78054931806089,42.78054931806089 0 0,0 0.735742265792302,-0.031682609639988375 l 0.749721609556353 21.767642180646185" fill="#ffe615" stroke="none" /></svg>